<svg xmlns="http://www.w3.org/2000/svg" xmlns:xlink="http://www.w3.org/1999/xlink" viewBox="0 0 263.49 203.86"><defs><style>.cls-1{fill:none;}.cls-2{clip-path:url(#clip-path);}.cls-3{fill:#fff;}.cls-4{fill:red;}</style><clipPath id="clip-path" transform="translate(0 -9.08)"><rect class="cls-1" x="52.03" width="85.09" height="123.08"/></clipPath></defs><g id="Camada_2" data-name="Camada 2"><g id="Camada_1-2" data-name="Camada 1"><g class="cls-2"><path d="M54.92,68.62V63a6.83,6.83,0,0,0,.12-.77A79.82,79.82,0,0,1,56.83,49c2.82-12.8,9.31-23.29,19.92-31.14A39.86,39.86,0,0,1,95.58,10.1c3.13-.4,6.3-.5,9.46-.72,1.63-.11,3.26-.2,4.89-.3H118c1.92.16,3.84.27,5.75.49A38,38,0,0,1,149.25,23c7.31,8.59,10.95,18.79,12.38,29.84.22,1.75.34,3.52.51,5.28v5.78a8.8,8.8,0,0,0-.14,1,73.89,73.89,0,0,1-1.61,12.73c-2.21,9.95-6,19.15-12.84,26.92a39.73,39.73,0,0,1-19.44,12.56c-2.55.71-5.2,1.06-7.81,1.57h-7a4.08,4.08,0,0,0-.59-.11c-2.57-.19-5.14-.31-7.7-.56a82.59,82.59,0,0,1-18.91-4,41.73,41.73,0,0,1-14.39-8C62,97.46,57,86.46,55.42,73.74,55.21,72,55.08,70.33,54.92,68.62Zm99.38-4.11a54.61,54.61,0,0,0-2.73-18c-2.39-7-6-13.12-11.88-17.8a21.79,21.79,0,0,0-25.41-1.78,32.63,32.63,0,0,0-12.41,13.6c-6.77,13.22-7.75,27-3.55,41.17A37,37,0,0,0,110,100.12a21.88,21.88,0,0,0,25.37,2.43,32,32,0,0,0,11.73-11.81A51.32,51.32,0,0,0,154.3,64.51Z" transform="translate(0 -9.08)"/><path class="cls-3" d="M154.3,64.51a51.32,51.32,0,0,1-7.17,26.23,32,32,0,0,1-11.73,11.81A21.88,21.88,0,0,1,110,100.12,37,37,0,0,1,98.32,81.7c-4.2-14.15-3.22-27.95,3.55-41.17a32.63,32.63,0,0,1,12.41-13.6,21.79,21.79,0,0,1,25.41,1.78c5.86,4.68,9.49,10.83,11.88,17.8A54.61,54.61,0,0,1,154.3,64.51ZM139.9,94.56c.79-.9,1.57-1.72,2.28-2.61a42.55,42.55,0,0,0,8.9-23c.28-2.89.18-5.83.18-8.74s-1.09-5.74-.81-8.68c-1.54-8.11-5.19-15-11.67-20.27a21.51,21.51,0,0,0-7.89-4.47,20.09,20.09,0,0,0-16,2.17,31.54,31.54,0,0,0-12,13.27,49,49,0,0,0-5.35,24.26A50.45,50.45,0,0,0,100.63,83c2.34,6.17,5.79,11.56,11.13,15.62,9,6.86,20.82,4.77,28-2.74C140.19,95.45,140.47,95,139.9,94.56Zm12.21-42.21a1.93,1.93,0,0,0,0,.34c.29,2.48.7,5,.85,7.45a51.57,51.57,0,0,1-3.72,22.94c-2.63,6.46-6.41,12.12-12.14,16.28a21.49,21.49,0,0,1-27.49-.94c-.38-.32-.76-.64-1.15-1l-.13.17c.49.44,1,.9,1.47,1.34a21.46,21.46,0,0,0,24.63,2.94,30.93,30.93,0,0,0,12.24-12.24,49.93,49.93,0,0,0,6.72-26.55A47,47,0,0,0,152.11,52.35Z" transform="translate(0 -9.08)"/><path d="M139.9,94.56c.57.46.29.89-.1,1.29-7.22,7.51-19,9.6-28,2.74C106.42,94.53,103,89.14,100.63,83a50.45,50.45,0,0,1-3.09-16.5,49,49,0,0,1,5.35-24.26,31.54,31.54,0,0,1,12-13.27,20.09,20.09,0,0,1,16-2.17,21.51,21.51,0,0,1,7.89,4.47c6.48,5.26,10.13,12.16,11.67,20.27-.28,2.94.81,5.76.81,8.68s.1,5.85-.18,8.74a42.55,42.55,0,0,1-8.9,23C141.47,92.84,140.69,93.66,139.9,94.56Zm-38.66-44c3,1,5.85,1.94,8.73,2.87a.85.85,0,0,0,.62-.17,6.8,6.8,0,0,0,3-4.11c.79-4.27,1.34-8.57,2-12.86a1.72,1.72,0,0,0-1-1.9,3.83,3.83,0,0,0-4.54.67c-.93,1-1.85,2.11-2.67,3.24A41.77,41.77,0,0,0,101.24,50.59ZM130.57,96c.3-.21.49-.32.67-.46a35.44,35.44,0,0,0,12.59-18.08,44.93,44.93,0,0,0,2-13.09,44.55,44.55,0,0,0-4.1-19.79,29.34,29.34,0,0,0-10.1-12.31,18.8,18.8,0,0,0-6.26-2.77,2.78,2.78,0,0,0,.63.29c7,2.63,12.07,7.13,13.92,14.64a1.47,1.47,0,0,1,0,.2c-1.22-1.81-2.43-3.74-3.77-5.57a17.07,17.07,0,0,0-5-4.62c.51.43.95.77,1.36,1.13,4.5,3.94,7.2,9,9.07,14.54a41.75,41.75,0,0,1-.16,27.39,35.84,35.84,0,0,1-5.36,10,25.83,25.83,0,0,1-12.61,9.48c-1.45.49-3,.73-4.69,1.13a21.44,21.44,0,0,0,15-6.54l.14.18ZM99.3,60.41c-1.41,6,.84,21.54,3.5,24.58.14-.31.29-.59.4-.89,1.33-3.61,2.64-7.22,4-10.83a7.84,7.84,0,0,0,.45-4.12c-.24-1.38-.35-2.94-1.48-3.84C104,63.58,101.66,62.08,99.3,60.41Zm19,17.6c-.55.91-1,1.67-1.46,2.39-2.25,3.3-4.52,6.59-6.74,9.9a1.61,1.61,0,0,0-.26,1.19c.49,1.62,3.29,3,4.83,2.32a24,24,0,0,0,4.14-2.25A16.17,16.17,0,0,0,124,85.87a1,1,0,0,0,0-.81c-1.22-1.82-2.44-3.64-3.75-5.39A12.56,12.56,0,0,0,118.31,78Zm30.32-23.12c.16,0,.1,0,.06,0-1.84.74-2.44,2.24-2.46,4.06,0,2.74.08,5.48-.06,8.22a39.83,39.83,0,0,1-5.6,18.93c-1.1,1.82-2.39,3.54-3.57,5.27,3.94-3.79,6.17-8.63,8-13.69l.09.69a6.49,6.49,0,0,1,.95-.16c2.24,0,2.56-.19,3.31-2.31a4.09,4.09,0,0,0,.24-.75c.4-2.76.92-5.52,1.14-8.3a34.1,34.1,0,0,0-.57-10.27c-.19-.82-.67-1-1.34-.75a12,12,0,0,0-1.48.73l-.24-.27Zm-23.5-26.3a19.79,19.79,0,0,1,8.1,3.66A32.19,32.19,0,0,1,142.81,45a9.06,9.06,0,0,0,.62,1.34.93.93,0,0,0,.7.4.83.83,0,0,0,.57-.55,7.68,7.68,0,0,0,.09-2.24A17.43,17.43,0,0,0,142,37C137.93,31.08,132,28.81,125.13,28.59Zm-9.27,35.58a4.89,4.89,0,0,0,1.44,3.71,2.34,2.34,0,0,0,3.19.13c2.17-1.71,2.21-6,.09-7.72a2.41,2.41,0,0,0-3.61.45A5.44,5.44,0,0,0,115.86,64.17Zm-15.62-12c.22.09.38.17.54.22,3.72,1.2,7.44,2.42,11.18,3.58,2.87.89,4.42.08,5.41-2.75a6,6,0,0,0,.27-1c.27-2.05.63-4.1.76-6.15.23-3.55.33-7.11.45-10.66a11.31,11.31,0,0,0-.19-1.72c-.56,3.89-.91,7.74-1.31,11.58-.24,2.23-.49,4.47-.89,6.67-.46,2.5-2,3.6-4.51,3s-4.88-1.41-7.3-2.17c-1.39-.43-2.75-1-4.19-1.45Zm24.28-11.42a2.86,2.86,0,0,0-.09.37c.17,3.23.33,6.46.54,9.69.06,1,.29,1.92.46,3l4.19-.86A32.14,32.14,0,0,0,124.52,40.78ZM99.42,57.41l-.26.3a6.14,6.14,0,0,0,.73.62c3.12,2,6.31,3.79,9.34,5.87A5.48,5.48,0,0,1,111.44,71c-.23.66-.39,1.35-.66,2q-2.66,6.24-5.38,12.44a17.89,17.89,0,0,1-1,1.55,2.21,2.21,0,0,0-.14.64c.24,0,.58.14.69,0a6.36,6.36,0,0,0,1.18-1.47c.67-1.35,1.25-2.75,1.85-4.14,1.48-3.45,3-6.88,4.42-10.37,1.23-3,.58-6-1.77-7.54C107,61.81,103.18,59.65,99.42,57.41Zm30.8,34.52c1.1-1,1.31-1.84.59-3.07q-3.36-5.69-6.84-11.29A6,6,0,0,0,121.14,75a2.4,2.4,0,0,0-3,.81c-.46.61-.87,1.25-1.28,1.88s-.74,1.17-1.1,1.76a18.34,18.34,0,0,0,2-2.65,1.85,1.85,0,0,1,2.57-.79,5.83,5.83,0,0,1,2,1.73c2.41,3.51,4.73,7.08,7.1,10.62C130.15,89.44,130.83,90.46,130.22,91.93ZM117,99.71l-.07.27c1.55.31,3.09.71,4.66.91a17,17,0,0,0,7.45-.58c.59-.19.89-.58.7-1.08-.09-.26-.64-.46-1-.49a7.47,7.47,0,0,0-1.55.15c.7-.41,1.43-.7,2.13-1s1.34-.69,2-1l-.09-.2A25.66,25.66,0,0,1,117,99.71Zm6.91-46.82a.59.59,0,0,0,0,.22c.21,2.66,2,4,4.54,3.28q5.39-1.43,10.73-3c1.26-.37,1.55-1.07,1.06-2.4-.14,1.26-1,1.62-1.93,1.86-3.2.81-6.39,1.69-9.61,2.41-2.94.66-3.42.35-4.63-2.39C124,52.89,124,52.9,123.92,52.89Zm3.57,15.39c.06-1.61,1.22-2.32,2.38-3,3.32-2.08,6.62-4.18,9.95-6.24a15.88,15.88,0,0,1,2-.86c-.12-.78-.36-1-1-.6-3.8,2.3-7.56,4.66-11.4,6.87A3.61,3.61,0,0,0,127.49,68.28Zm2,4.61,1-6.29-.26-.16c-.42.27-1.1.46-1.22.83C128.43,69.11,128,71,129.51,72.89Zm5.37,14a10.79,10.79,0,0,1-1-1.54c-.64-1.46-1.2-3-1.8-4.45-.33-.82-.68-1.64-1-2.47.85,2.76,1.84,5.45,2.86,8.14C134.2,87.44,134.39,87.45,134.88,86.94ZM112.52,62.35c.14,0,.59.13.68,0a3.48,3.48,0,0,0,.62-1.39c.06-.39,0-1-.61-.95Zm10.31,7.5v1.93l-.58-.06c.22.3.7.55.78.46a2.49,2.49,0,0,0,.67-1.2A.91.91,0,0,0,122.83,69.85Zm-4.08-13.7c.33,0,.82.18,1,0a2,2,0,0,0,.45-1.21c0-.34-.39-.66-.68-1.09C119.09,54.7,119.79,55.56,118.75,56.15Zm6.83,4.13-.27.13v1.7l-.57,0v.24c.3,0,.78.19.88.07a2.46,2.46,0,0,0,.53-1.27C126.16,60.9,125.78,60.59,125.58,60.28ZM114.9,72.52c.49-.27,1-.41,1.07-.62a6.15,6.15,0,0,0-.16-1.58l-.28.06.21,1.07-.52-.6Z" transform="translate(0 -9.08)"/><path d="M152.11,52.35a47,47,0,0,1,1.29,10.78,49.93,49.93,0,0,1-6.72,26.55,30.93,30.93,0,0,1-12.24,12.24A21.46,21.46,0,0,1,109.81,99c-.5-.44-1-.9-1.47-1.34l.13-.17c.39.31.77.63,1.15,1a21.49,21.49,0,0,0,27.49.94c5.73-4.16,9.51-9.82,12.14-16.28A51.57,51.57,0,0,0,153,60.14c-.15-2.49-.56-5-.85-7.45A1.93,1.93,0,0,1,152.11,52.35Z" transform="translate(0 -9.08)"/><path class="cls-3" d="M130.57,96l3.27-4.29-.14-.18a21.44,21.44,0,0,1-15,6.54c1.7-.4,3.24-.64,4.69-1.13A25.83,25.83,0,0,0,136,87.43a35.84,35.84,0,0,0,5.36-10,41.75,41.75,0,0,0,.16-27.39c-1.87-5.57-4.57-10.6-9.07-14.54-.41-.36-.85-.7-1.36-1.13a17.07,17.07,0,0,1,5,4.62c1.34,1.83,2.55,3.76,3.77,5.57a1.47,1.47,0,0,0,0-.2C138,36.89,133,32.39,126,29.76a2.78,2.78,0,0,1-.63-.29,18.8,18.8,0,0,1,6.26,2.77,29.34,29.34,0,0,1,10.1,12.31,44.55,44.55,0,0,1,4.1,19.79,44.93,44.93,0,0,1-2,13.09,35.44,35.44,0,0,1-12.59,18.08C131.06,95.65,130.87,95.76,130.57,96Z" transform="translate(0 -9.08)"/><path class="cls-3" d="M148.63,54.89l-1.51,1.4.24.27a12,12,0,0,1,1.48-.73c.67-.23,1.15-.07,1.34.75a34.1,34.1,0,0,1,.57,10.27c-.22,2.78-.74,5.54-1.14,8.3a4.09,4.09,0,0,1-.24.75c-.75,2.12-1.07,2.33-3.31,2.31a6.49,6.49,0,0,0-.95.16l-.09-.69c-1.85,5.06-4.08,9.9-8,13.69,1.18-1.73,2.47-3.45,3.57-5.27a39.83,39.83,0,0,0,5.6-18.93c.14-2.74,0-5.48.06-8.22,0-1.82.62-3.32,2.46-4.06C148.73,54.87,148.79,54.89,148.63,54.89Z" transform="translate(0 -9.08)"/><path class="cls-3" d="M125.13,28.59c6.9.22,12.8,2.49,16.82,8.44a17.43,17.43,0,0,1,2.84,6.9,7.68,7.68,0,0,1-.09,2.24.83.83,0,0,1-.57.55.93.93,0,0,1-.7-.4,9.06,9.06,0,0,1-.62-1.34,32.19,32.19,0,0,0-9.58-12.73A19.79,19.79,0,0,0,125.13,28.59Z" transform="translate(0 -9.08)"/><path class="cls-3" d="M115.86,64.17A5.44,5.44,0,0,1,117,60.74a2.41,2.41,0,0,1,3.61-.45c2.12,1.74,2.08,6-.09,7.72a2.34,2.34,0,0,1-3.19-.13A4.89,4.89,0,0,1,115.86,64.17Z" transform="translate(0 -9.08)"/><path class="cls-3" d="M100.24,52.2l.22-.83c1.44.5,2.8,1,4.19,1.45,2.42.76,4.83,1.59,7.3,2.17s4-.53,4.51-3c.4-2.2.65-4.44.89-6.67.4-3.84.75-7.69,1.31-11.58a11.31,11.31,0,0,1,.19,1.72c-.12,3.55-.22,7.11-.45,10.66-.13,2-.49,4.1-.76,6.15a6,6,0,0,1-.27,1c-1,2.83-2.54,3.64-5.41,2.75-3.74-1.16-7.46-2.38-11.18-3.58C100.62,52.37,100.46,52.29,100.24,52.2Z" transform="translate(0 -9.08)"/><path class="cls-3" d="M99.42,57.41c3.76,2.24,7.57,4.4,11.26,6.76,2.35,1.51,3,4.51,1.77,7.54C111,75.2,109.51,78.63,108,82.08c-.6,1.39-1.18,2.79-1.85,4.14A6.36,6.36,0,0,1,105,87.69c-.11.11-.45,0-.69,0a2.21,2.21,0,0,1,.14-.64,17.89,17.89,0,0,0,1-1.55q2.73-6.21,5.38-12.44c.27-.64.43-1.33.66-2a5.48,5.48,0,0,0-2.21-6.84c-3-2.08-6.22-3.92-9.34-5.87a6.14,6.14,0,0,1-.73-.62Z" transform="translate(0 -9.08)"/><path class="cls-3" d="M130.22,91.93c.61-1.47-.07-2.49-.77-3.53-2.37-3.54-4.69-7.11-7.1-10.62a5.83,5.83,0,0,0-2-1.73,1.85,1.85,0,0,0-2.57.79,18.34,18.34,0,0,1-2,2.65c.36-.59.72-1.18,1.1-1.76s.82-1.27,1.28-1.88a2.4,2.4,0,0,1,3-.81A6,6,0,0,1,124,77.57q3.48,5.61,6.84,11.29C131.53,90.09,131.32,91,130.22,91.93Z" transform="translate(0 -9.08)"/><path class="cls-3" d="M117,99.71a25.66,25.66,0,0,0,14.23-3.1l.09.2c-.67.35-1.33.72-2,1s-1.43.63-2.13,1a7.47,7.47,0,0,1,1.55-.15c.37,0,.92.23,1,.49.19.5-.11.89-.7,1.08a17,17,0,0,1-7.45.58c-1.57-.2-3.11-.6-4.66-.91Z" transform="translate(0 -9.08)"/><path class="cls-3" d="M123.92,52.89s.1,0,.11,0c1.21,2.74,1.69,3.05,4.63,2.39,3.22-.72,6.41-1.6,9.61-2.41.95-.24,1.79-.6,1.93-1.86.49,1.33.2,2-1.06,2.4q-5.35,1.53-10.73,3c-2.57.68-4.33-.62-4.54-3.28A.59.59,0,0,1,123.92,52.89Z" transform="translate(0 -9.08)"/><path class="cls-3" d="M127.49,68.28a3.61,3.61,0,0,1,1.93-3.87c3.84-2.21,7.6-4.57,11.4-6.87.63-.38.87-.18,1,.6a15.88,15.88,0,0,0-2,.86c-3.33,2.06-6.63,4.16-9.95,6.24C128.71,66,127.55,66.67,127.49,68.28Z" transform="translate(0 -9.08)"/><path class="cls-3" d="M134.88,86.94c-.49.51-.68.5-1-.32-1-2.69-2-5.38-2.86-8.14.33.83.68,1.65,1,2.47.6,1.49,1.16,3,1.8,4.45A10.79,10.79,0,0,0,134.88,86.94Z" transform="translate(0 -9.08)"/><path class="cls-3" d="M112.52,62.35l.69-2.33c.62,0,.67.56.61.95a3.48,3.48,0,0,1-.62,1.39C113.11,62.48,112.66,62.35,112.52,62.35Z" transform="translate(0 -9.08)"/><path class="cls-3" d="M122.83,69.85A.91.91,0,0,1,123.7,71a2.49,2.49,0,0,1-.67,1.2c-.08.09-.56-.16-.78-.46l.58.06Z" transform="translate(0 -9.08)"/><path class="cls-3" d="M118.75,56.15c1-.59.34-1.45.72-2.27.29.43.67.75.68,1.09a2,2,0,0,1-.45,1.21C119.57,56.33,119.08,56.17,118.75,56.15Z" transform="translate(0 -9.08)"/><path class="cls-3" d="M125.58,60.28c.2.31.58.62.57.92a2.46,2.46,0,0,1-.53,1.27c-.1.12-.58,0-.88-.07v-.24l.57,0v-1.7Z" transform="translate(0 -9.08)"/><path class="cls-3" d="M114.9,72.52l.32-1.67.52.6-.21-1.07.28-.06A6.15,6.15,0,0,1,116,71.9C115.94,72.11,115.39,72.25,114.9,72.52Z" transform="translate(0 -9.08)"/></g><path class="cls-4" d="M113.81,9.4H195l22.2,21.76q-4.78,17.92-6.09,22.42-16,10.08-16.76,10.87Q205.2,75,205.2,75.55q-11.1,40.77-11.75,43.74H165.38l11.75-44H149.5l-11.75,44H109.68L133.83,29.2Q114,9.91,113.81,9.4Zm41.78,44h27.63q0-.73,5.88-22H161.68q-.51,0-2.61,9.14Q157.1,46.69,155.59,53.36Z" transform="translate(0 -9.08)"/><path d="M1.84,142.3H38.06L48,152q-2.13,8-2.72,10c-4.74,3-7.24,4.61-7.47,4.85a52.79,52.79,0,0,1,4.85,4.95Q37.67,190,37.38,191.33H24.85l5.25-19.61H17.77l-5.25,19.61H0l10.78-40.2Q1.95,142.52,1.84,142.3Zm18.65,19.61H32.82c0-.22.87-3.48,2.62-9.81H23.2c-.15,0-.54,1.36-1.16,4.08C21.46,158,20.94,159.92,20.49,161.91Z" transform="translate(0 -9.08)"/><path d="M45,142.3H81.16q8.64,8.41,9.91,9.8H66.31c-.15,0-.54,1.36-1.16,4.08-.59,1.84-1.11,3.74-1.56,5.73H75.92q0,.36-2.62,9.81H60.87l-2.62,9.8H83.11q-2.34,8.44-2.63,9.81H43.11l10.77-40.2Q45,142.52,45,142.3Z" transform="translate(0 -9.08)"/><path d="M88.06,142.3h36.21q5,4.92,9.9,9.71-10.29,38-10.58,39.32H111.07q.29-1.4,10.58-39.23H109.42q-.23,0-1.17,4.08-.87,2.79-9.51,35.15H86.21L97,151.13Q88.16,142.52,88.06,142.3Z" transform="translate(0 -9.08)"/><path d="M131.16,142.3h36.22l9.9,9.71Q167,190,166.7,191.33H154.17l5.25-19.61H147.09l-5.25,19.61H129.32l10.78-40.2Q131.27,142.52,131.16,142.3Zm18.64,19.61h12.33c0-.22.88-3.48,2.63-9.81H152.52c-.15,0-.54,1.36-1.16,4.08C150.78,158,150.26,159.92,149.8,161.91Z" transform="translate(0 -9.08)"/><path d="M174.27,142.3h36.21q8.64,8.41,9.91,9.8H208.06q-.23,0-1.17,4.08-.87,2.79-9.51,35.15H184.85q.3-1.4,10.59-39.23H184.17Q174.3,142.43,174.27,142.3Z" transform="translate(0 -9.08)"/><path d="M217.38,142.3h36.21q5,4.92,9.9,9.71-7.28,27.09-8.05,29.71-1.11.61-13.21,8.44a6.74,6.74,0,0,1-2,1.17H228.06q-8.64-8.42-9.91-9.81,7.77-28.71,8.16-30.39Q217.47,142.52,217.38,142.3Zm13.3,39.22H243l8-29.42H238.74c-.16,0-1,3.05-2.53,9.13Q236,161.59,230.68,181.52Z" transform="translate(0 -9.08)"/><path d="M59.7,212.75V198.62h5a6.13,6.13,0,0,1,3.72.95,3.33,3.33,0,0,1,1.25,2.82,2.76,2.76,0,0,1-.61,1.75,3.86,3.86,0,0,1-1.65,1.18,3.59,3.59,0,0,1,2,1.21,3.38,3.38,0,0,1,.71,2.14,3.66,3.66,0,0,1-1.32,3A5.76,5.76,0,0,1,65,212.75Zm2-8.1h3a3.32,3.32,0,0,0,2.1-.62,2.24,2.24,0,0,0,.06-3.36,3.82,3.82,0,0,0-2.22-.53h-3Zm0,1.49v5.09H65a3.35,3.35,0,0,0,2.21-.68,2.29,2.29,0,0,0,.81-1.86c0-1.7-1-2.55-3-2.55Z" transform="translate(0 -9.08)"/><path d="M84.7,206.14a8.23,8.23,0,0,1-.75,3.63,5.38,5.38,0,0,1-2.13,2.36,6.24,6.24,0,0,1-3.22.82,6.13,6.13,0,0,1-3.18-.83,5.48,5.48,0,0,1-2.16-2.33,7.9,7.9,0,0,1-.78-3.52v-1a8.08,8.08,0,0,1,.76-3.6,5.5,5.5,0,0,1,2.15-2.39,6.07,6.07,0,0,1,3.19-.83,6.19,6.19,0,0,1,3.22.82A5.39,5.39,0,0,1,84,201.62a8.29,8.29,0,0,1,.75,3.63Zm-2-.91a6,6,0,0,0-1.09-3.86,4.06,4.06,0,0,0-6,0,5.88,5.88,0,0,0-1.12,3.73v1a6,6,0,0,0,1.1,3.83,4.05,4.05,0,0,0,6,.08,6,6,0,0,0,1.1-3.77Z" transform="translate(0 -9.08)"/><path d="M93.28,207H89.71v5.72h-2V198.62h5a6.23,6.23,0,0,1,4,1.09,3.79,3.79,0,0,1,1.39,3.16,3.63,3.63,0,0,1-.77,2.3,4.59,4.59,0,0,1-2.14,1.47l3.57,6v.12H96.58Zm-3.57-1.52h3.08a3.65,3.65,0,0,0,2.38-.72,2.35,2.35,0,0,0,.88-1.92,2.48,2.48,0,0,0-.84-2,3.8,3.8,0,0,0-2.43-.71H89.71Z" transform="translate(0 -9.08)"/><path d="M106.45,207h-3.57v5.72h-2V198.62h5a6.23,6.23,0,0,1,3.95,1.09,3.78,3.78,0,0,1,1.38,3.16,3.57,3.57,0,0,1-.77,2.3,4.56,4.56,0,0,1-2.13,1.47l3.57,6v.12h-2.15Zm-3.57-1.52H106a3.62,3.62,0,0,0,2.37-.72,2.35,2.35,0,0,0,.89-1.92,2.48,2.48,0,0,0-.84-2,3.82,3.82,0,0,0-2.43-.71h-3.07Z" transform="translate(0 -9.08)"/><path d="M122.43,209.05h-6.37l-1.43,3.7h-2.06l5.8-14.13h1.76l5.81,14.13h-2.06Zm-5.76-1.52h5.17l-2.59-6.61Z" transform="translate(0 -9.08)"/><path d="M139.06,208.27a5.14,5.14,0,0,1-1.78,3.46,6.15,6.15,0,0,1-4,1.22,5.56,5.56,0,0,1-4.32-1.8,6.9,6.9,0,0,1-1.62-4.8V205a7.52,7.52,0,0,1,.76-3.47,5.39,5.39,0,0,1,2.14-2.29,6.28,6.28,0,0,1,3.22-.8,5.78,5.78,0,0,1,3.88,1.25,5.11,5.11,0,0,1,1.71,3.48h-2a3.92,3.92,0,0,0-1.13-2.45,3.58,3.58,0,0,0-2.44-.76,3.68,3.68,0,0,0-3,1.32,5.75,5.75,0,0,0-1.09,3.76v1.37a5.89,5.89,0,0,0,1,3.66,3.41,3.41,0,0,0,2.89,1.36,4.08,4.08,0,0,0,2.57-.7,3.81,3.81,0,0,0,1.18-2.45Z" transform="translate(0 -9.08)"/><path d="M153.47,212.75h-2v-6.53H143.8v6.53h-2V198.62h2v6.08h7.66v-6.08h2Z" transform="translate(0 -9.08)"/><path d="M165.62,209.05h-6.37l-1.43,3.7h-2.07l5.8-14.13h1.76l5.81,14.13h-2.05Zm-5.77-1.52H165l-2.59-6.61Z" transform="translate(0 -9.08)"/><path d="M176.75,207h-3.57v5.72h-2V198.62h5a6.23,6.23,0,0,1,3.95,1.09,3.76,3.76,0,0,1,1.39,3.16,3.63,3.63,0,0,1-.77,2.3,4.56,4.56,0,0,1-2.13,1.47l3.57,6v.12h-2.15Zm-3.57-1.52h3.08a3.64,3.64,0,0,0,2.37-.72,2.35,2.35,0,0,0,.88-1.92,2.48,2.48,0,0,0-.84-2,3.79,3.79,0,0,0-2.42-.71h-3.07Z" transform="translate(0 -9.08)"/><path d="M186.49,212.75h-2V198.62h2Z" transform="translate(0 -9.08)"/><path d="M198.73,209.05h-6.36l-1.44,3.7h-2.06l5.8-14.13h1.76l5.81,14.13h-2.05ZM193,207.53h5.17l-2.59-6.61Z" transform="translate(0 -9.08)"/></g></g></svg>