<svg xmlns="http://www.w3.org/2000/svg" xmlns:xlink="http://www.w3.org/1999/xlink" viewBox="0 0 162.25 110.21"><defs><style>.cls-1{fill:none;}.cls-2{clip-path:url(#clip-path);}.cls-3{fill:#fff;}.cls-4{fill:red;}</style><clipPath id="clip-path" transform="translate(-2.89 -9.08)"><rect class="cls-1" width="85.09" height="123.08"/></clipPath></defs><g id="Camada_2" data-name="Camada 2"><g id="Camada_1-2" data-name="Camada 1"><g class="cls-2"><path d="M2.89,68.62V63A6.83,6.83,0,0,0,3,62.25,79.82,79.82,0,0,1,4.8,49c2.82-12.8,9.31-23.29,19.92-31.14A39.85,39.85,0,0,1,43.56,10.1c3.13-.4,6.29-.5,9.45-.72,1.63-.11,3.26-.2,4.89-.3H66c1.92.16,3.84.27,5.76.49A38,38,0,0,1,97.22,23c7.31,8.59,11,18.79,12.38,29.84.22,1.75.34,3.52.51,5.28v5.78a8.8,8.8,0,0,0-.14,1,72.92,72.92,0,0,1-1.61,12.73c-2.2,9.95-6,19.15-12.84,26.92a39.73,39.73,0,0,1-19.44,12.56c-2.55.71-5.2,1.06-7.81,1.57h-7a3.84,3.84,0,0,0-.59-.11c-2.57-.19-5.14-.31-7.7-.56a82.7,82.7,0,0,1-18.91-4,41.73,41.73,0,0,1-14.39-8C10,97.46,4.93,86.46,3.39,73.74,3.18,72,3.05,70.33,2.89,68.62Zm99.38-4.11a54.61,54.61,0,0,0-2.73-18c-2.39-7-6-13.12-11.88-17.8a21.79,21.79,0,0,0-25.41-1.78,32.63,32.63,0,0,0-12.41,13.6c-6.77,13.22-7.75,27-3.55,41.17A37.09,37.09,0,0,0,58,100.12a21.88,21.88,0,0,0,25.37,2.43A32,32,0,0,0,95.1,90.74,51.32,51.32,0,0,0,102.27,64.51Z" transform="translate(-2.89 -9.08)"/><path class="cls-3" d="M102.27,64.51A51.32,51.32,0,0,1,95.1,90.74a32,32,0,0,1-11.73,11.81A21.88,21.88,0,0,1,58,100.12,37.09,37.09,0,0,1,46.29,81.7c-4.2-14.15-3.22-27.95,3.55-41.17a32.63,32.63,0,0,1,12.41-13.6,21.79,21.79,0,0,1,25.41,1.78c5.86,4.68,9.49,10.83,11.88,17.8A54.61,54.61,0,0,1,102.27,64.51ZM87.87,94.56c.79-.9,1.57-1.72,2.28-2.61a42.55,42.55,0,0,0,8.9-23c.28-2.89.18-5.83.18-8.74s-1.09-5.74-.81-8.68c-1.53-8.11-5.19-15-11.67-20.27a21.51,21.51,0,0,0-7.89-4.47,20.09,20.09,0,0,0-16,2.17,31.61,31.61,0,0,0-12,13.27,48.84,48.84,0,0,0-5.34,24.26A50.19,50.19,0,0,0,48.61,83C51,89.14,54.39,94.53,59.73,98.59c9,6.86,20.82,4.77,28-2.74C88.16,95.45,88.44,95,87.87,94.56Zm12.22-42.21a1.93,1.93,0,0,0,0,.34c.29,2.48.7,5,.85,7.45a51.57,51.57,0,0,1-3.72,22.94c-2.63,6.46-6.4,12.12-12.14,16.28a21.49,21.49,0,0,1-27.49-.94c-.38-.32-.76-.64-1.15-1l-.13.17c.49.44,1,.9,1.48,1.34a21.44,21.44,0,0,0,24.62,2.94A30.93,30.93,0,0,0,94.65,89.68a49.93,49.93,0,0,0,6.72-26.55A47.51,47.51,0,0,0,100.09,52.35Z" transform="translate(-2.89 -9.08)"/><path d="M87.87,94.56c.57.46.29.89-.1,1.29-7.22,7.51-19,9.6-28,2.74C54.39,94.53,51,89.14,48.61,83a50.19,50.19,0,0,1-3.09-16.5,48.84,48.84,0,0,1,5.34-24.26,31.61,31.61,0,0,1,12-13.27,20.09,20.09,0,0,1,16-2.17,21.51,21.51,0,0,1,7.89,4.47C93.23,36.5,96.89,43.4,98.42,51.51c-.28,2.94.81,5.76.81,8.68s.1,5.85-.18,8.74a42.55,42.55,0,0,1-8.9,23C89.44,92.84,88.66,93.66,87.87,94.56Zm-38.66-44c3,1,5.85,1.94,8.73,2.87a.88.88,0,0,0,.63-.17,6.83,6.83,0,0,0,2.94-4.11c.79-4.27,1.34-8.57,2-12.86a1.72,1.72,0,0,0-1.05-1.9,3.83,3.83,0,0,0-4.54.67c-.93,1-1.85,2.11-2.67,3.24A41.77,41.77,0,0,0,49.21,50.59ZM78.54,96c.3-.21.49-.32.67-.46a35.45,35.45,0,0,0,12.6-18.08,45.26,45.26,0,0,0,2-13.09,44.55,44.55,0,0,0-4.1-19.79,29.34,29.34,0,0,0-10.1-12.31,18.72,18.72,0,0,0-6.26-2.77,2.78,2.78,0,0,0,.63.29C81,32.39,86,36.89,87.85,44.4a1.47,1.47,0,0,1,0,.2c-1.22-1.81-2.43-3.74-3.77-5.57a17,17,0,0,0-5-4.62c.51.43,1,.77,1.36,1.13,4.5,3.94,7.2,9,9.07,14.54a41.69,41.69,0,0,1-.16,27.39,35.84,35.84,0,0,1-5.36,10,25.83,25.83,0,0,1-12.61,9.48c-1.45.49-3,.73-4.69,1.13a21.44,21.44,0,0,0,15-6.54l.15.18ZM47.27,60.41c-1.41,6,.84,21.54,3.5,24.58.14-.31.29-.59.4-.89,1.33-3.61,2.64-7.22,4-10.83a7.94,7.94,0,0,0,.44-4.12c-.24-1.38-.35-2.94-1.47-3.84C52,63.58,49.63,62.08,47.27,60.41Zm19,17.6c-.56.91-1,1.67-1.47,2.39-2.25,3.3-4.52,6.59-6.74,9.9a1.61,1.61,0,0,0-.26,1.19c.49,1.62,3.29,3,4.83,2.32a24,24,0,0,0,4.14-2.25A16.17,16.17,0,0,0,72,85.87a1,1,0,0,0,0-.81c-1.22-1.82-2.43-3.64-3.75-5.39A13,13,0,0,0,66.29,78ZM96.6,54.89c.16,0,.1,0,.06,0-1.84.74-2.44,2.24-2.46,4.06,0,2.74.08,5.48-.06,8.22A39.93,39.93,0,0,1,88.55,86.1c-1.11,1.82-2.4,3.54-3.58,5.27,3.94-3.79,6.17-8.63,8-13.69l.09.69a6.39,6.39,0,0,1,1-.16c2.24,0,2.55-.19,3.3-2.31a4.09,4.09,0,0,0,.24-.75c.4-2.76.92-5.52,1.14-8.3a34.1,34.1,0,0,0-.57-10.27c-.19-.82-.66-1-1.34-.75a12,12,0,0,0-1.48.73l-.24-.27ZM73.1,28.59a19.79,19.79,0,0,1,8.1,3.66A32.19,32.19,0,0,1,90.78,45a9.06,9.06,0,0,0,.62,1.34.93.93,0,0,0,.7.4.81.81,0,0,0,.57-.55,7.68,7.68,0,0,0,.09-2.24A17.43,17.43,0,0,0,89.92,37C85.9,31.08,80,28.81,73.1,28.59ZM63.83,64.17a4.9,4.9,0,0,0,1.45,3.71,2.32,2.32,0,0,0,3.18.13c2.17-1.71,2.21-6,.09-7.72a2.41,2.41,0,0,0-3.61.45A5.44,5.44,0,0,0,63.83,64.17Zm-15.61-12c.21.09.37.17.53.22,3.72,1.2,7.44,2.42,11.18,3.58,2.87.89,4.42.08,5.41-2.75a6,6,0,0,0,.27-1c.27-2.05.63-4.1.77-6.15.23-3.55.32-7.11.44-10.66a11.31,11.31,0,0,0-.19-1.72c-.56,3.89-.91,7.74-1.31,11.58-.24,2.23-.48,4.47-.89,6.67-.46,2.5-2,3.6-4.51,3s-4.88-1.41-7.3-2.17c-1.39-.43-2.75-1-4.18-1.45ZM72.49,40.78a2.86,2.86,0,0,0-.09.37c.17,3.23.33,6.46.54,9.69.06,1,.3,1.92.46,3L77.6,53A32.32,32.32,0,0,0,72.49,40.78ZM47.39,57.41l-.26.3a6.14,6.14,0,0,0,.73.62c3.12,2,6.31,3.79,9.34,5.87A5.48,5.48,0,0,1,59.41,71c-.23.66-.38,1.35-.66,2q-2.66,6.24-5.38,12.44A17.89,17.89,0,0,1,52.42,87a2.6,2.6,0,0,0-.14.64c.24,0,.58.14.69,0a6.36,6.36,0,0,0,1.18-1.47c.67-1.35,1.25-2.75,1.85-4.14,1.48-3.45,3-6.88,4.42-10.37,1.23-3,.58-6-1.77-7.54C55,61.81,51.15,59.65,47.39,57.41Zm30.8,34.52c1.1-1,1.31-1.84.59-3.07q-3.36-5.69-6.84-11.29A6,6,0,0,0,69.11,75a2.4,2.4,0,0,0-3,.81c-.46.61-.87,1.25-1.28,1.88s-.73,1.17-1.1,1.76a18.34,18.34,0,0,0,2-2.65,1.85,1.85,0,0,1,2.57-.79,5.83,5.83,0,0,1,2,1.73c2.41,3.51,4.73,7.08,7.1,10.62C78.12,89.44,78.8,90.46,78.19,91.93ZM65,99.71l-.07.27c1.55.31,3.09.71,4.66.91a17,17,0,0,0,7.45-.58c.59-.19.89-.58.71-1.08-.1-.26-.65-.46-1-.49a7.53,7.53,0,0,0-1.55.15c.7-.41,1.43-.7,2.13-1s1.34-.69,2-1l-.09-.2A25.66,25.66,0,0,1,65,99.71Zm6.91-46.82a.59.59,0,0,0,0,.22c.21,2.66,2,4,4.54,3.28q5.39-1.43,10.73-3c1.26-.37,1.55-1.07,1.06-2.4-.14,1.26-1,1.62-1.93,1.86-3.2.81-6.39,1.69-9.61,2.41-2.94.66-3.42.35-4.63-2.39C72,52.89,71.94,52.9,71.89,52.89Zm3.57,15.39c.06-1.61,1.22-2.32,2.38-3,3.32-2.08,6.62-4.18,10-6.24a15.88,15.88,0,0,1,2-.86c-.11-.78-.36-1-1-.6-3.8,2.3-7.56,4.66-11.4,6.87A3.61,3.61,0,0,0,75.46,68.28Zm2,4.61,1-6.29-.26-.16c-.42.27-1.09.46-1.22.83C76.4,69.11,76,71,77.48,72.89Zm5.37,14a10.79,10.79,0,0,1-1-1.54c-.64-1.46-1.2-3-1.8-4.45-.33-.82-.67-1.64-1-2.47.85,2.76,1.84,5.45,2.86,8.14C82.17,87.44,82.36,87.45,82.85,86.94ZM60.49,62.35c.14,0,.59.13.68,0A3.35,3.35,0,0,0,61.79,61c.06-.39,0-1-.61-.95Zm10.31,7.5v1.93l-.58-.06c.22.3.7.55.78.46a2.49,2.49,0,0,0,.67-1.2A.9.9,0,0,0,70.8,69.85Zm-4.08-13.7c.33,0,.82.18,1,0A2,2,0,0,0,68.12,55c0-.34-.39-.66-.68-1.09C67.06,54.7,67.76,55.56,66.72,56.15Zm6.83,4.13-.27.13v1.7l-.56,0v.24c.3,0,.78.19.88.07a2.46,2.46,0,0,0,.53-1.27C74.14,60.9,73.75,60.59,73.55,60.28ZM62.87,72.52c.49-.27,1-.41,1.07-.62a6.15,6.15,0,0,0-.16-1.58l-.28.06.21,1.07-.52-.6Z" transform="translate(-2.89 -9.08)"/><path d="M100.09,52.35a47.51,47.51,0,0,1,1.28,10.78,49.93,49.93,0,0,1-6.72,26.55,30.93,30.93,0,0,1-12.24,12.24A21.44,21.44,0,0,1,57.79,99c-.51-.44-1-.9-1.48-1.34l.13-.17c.39.31.77.63,1.15,1a21.49,21.49,0,0,0,27.49.94c5.74-4.16,9.51-9.82,12.14-16.28a51.57,51.57,0,0,0,3.72-22.94c-.15-2.49-.56-5-.85-7.45A1.93,1.93,0,0,1,100.09,52.35Z" transform="translate(-2.89 -9.08)"/><path class="cls-3" d="M78.54,96l3.28-4.29-.15-.18a21.44,21.44,0,0,1-15,6.54c1.7-.4,3.24-.64,4.69-1.13A25.83,25.83,0,0,0,84,87.43a35.84,35.84,0,0,0,5.36-10,41.69,41.69,0,0,0,.16-27.39c-1.87-5.57-4.57-10.6-9.07-14.54-.41-.36-.85-.7-1.36-1.13a17,17,0,0,1,5,4.62c1.34,1.83,2.55,3.76,3.77,5.57a1.47,1.47,0,0,0,0-.2C86,36.89,81,32.39,73.93,29.76a2.78,2.78,0,0,1-.63-.29,18.72,18.72,0,0,1,6.26,2.77,29.34,29.34,0,0,1,10.1,12.31,44.55,44.55,0,0,1,4.1,19.79,45.26,45.26,0,0,1-2,13.09,35.45,35.45,0,0,1-12.6,18.08C79,95.65,78.84,95.76,78.54,96Z" transform="translate(-2.89 -9.08)"/><path class="cls-3" d="M96.6,54.89l-1.51,1.4.24.27a12,12,0,0,1,1.48-.73c.68-.23,1.15-.07,1.34.75a34.1,34.1,0,0,1,.57,10.27c-.22,2.78-.74,5.54-1.14,8.3a4.09,4.09,0,0,1-.24.75c-.75,2.12-1.06,2.33-3.3,2.31a6.39,6.39,0,0,0-1,.16L93,77.68c-1.85,5.06-4.08,9.9-8,13.69,1.18-1.73,2.47-3.45,3.58-5.27a39.93,39.93,0,0,0,5.59-18.93c.14-2.74,0-5.48.06-8.22,0-1.82.62-3.32,2.46-4.06C96.7,54.87,96.76,54.89,96.6,54.89Z" transform="translate(-2.89 -9.08)"/><path class="cls-3" d="M73.1,28.59c6.9.22,12.8,2.49,16.82,8.44a17.43,17.43,0,0,1,2.84,6.9,7.68,7.68,0,0,1-.09,2.24.81.81,0,0,1-.57.55.93.93,0,0,1-.7-.4A9.06,9.06,0,0,1,90.78,45,32.19,32.19,0,0,0,81.2,32.25,19.79,19.79,0,0,0,73.1,28.59Z" transform="translate(-2.89 -9.08)"/><path class="cls-3" d="M63.83,64.17a5.44,5.44,0,0,1,1.11-3.43,2.41,2.41,0,0,1,3.61-.45c2.12,1.74,2.08,6-.09,7.72a2.32,2.32,0,0,1-3.18-.13A4.9,4.9,0,0,1,63.83,64.17Z" transform="translate(-2.89 -9.08)"/><path class="cls-3" d="M48.22,52.2l.22-.83c1.43.5,2.79,1,4.18,1.45,2.42.76,4.83,1.59,7.3,2.17s4-.53,4.51-3c.41-2.2.65-4.44.89-6.67.4-3.84.75-7.69,1.31-11.58a11.31,11.31,0,0,1,.19,1.72c-.12,3.55-.21,7.11-.44,10.66-.14,2-.5,4.1-.77,6.15a6,6,0,0,1-.27,1c-1,2.83-2.54,3.64-5.41,2.75-3.74-1.16-7.46-2.38-11.18-3.58C48.59,52.37,48.43,52.29,48.22,52.2Z" transform="translate(-2.89 -9.08)"/><path class="cls-3" d="M47.39,57.41c3.76,2.24,7.57,4.4,11.26,6.76,2.35,1.51,3,4.51,1.77,7.54C59,75.2,57.48,78.63,56,82.08c-.6,1.39-1.18,2.79-1.85,4.14A6.36,6.36,0,0,1,53,87.69c-.11.11-.45,0-.69,0a2.6,2.6,0,0,1,.14-.64,17.89,17.89,0,0,0,.95-1.55Q56.1,79.26,58.75,73c.28-.64.43-1.33.66-2A5.48,5.48,0,0,0,57.2,64.2c-3-2.08-6.22-3.92-9.34-5.87a6.14,6.14,0,0,1-.73-.62Z" transform="translate(-2.89 -9.08)"/><path class="cls-3" d="M78.19,91.93c.61-1.47-.07-2.49-.77-3.53-2.37-3.54-4.69-7.11-7.1-10.62a5.83,5.83,0,0,0-2-1.73,1.85,1.85,0,0,0-2.57.79,18.34,18.34,0,0,1-2,2.65c.37-.59.72-1.18,1.1-1.76s.82-1.27,1.28-1.88a2.4,2.4,0,0,1,3-.81,6,6,0,0,1,2.83,2.53q3.48,5.61,6.84,11.29C79.5,90.09,79.29,91,78.19,91.93Z" transform="translate(-2.89 -9.08)"/><path class="cls-3" d="M65,99.71a25.66,25.66,0,0,0,14.23-3.1l.09.2c-.67.35-1.33.72-2,1s-1.43.63-2.13,1a7.53,7.53,0,0,1,1.55-.15c.37,0,.92.23,1,.49.18.5-.12.89-.71,1.08a17,17,0,0,1-7.45.58c-1.57-.2-3.11-.6-4.66-.91Z" transform="translate(-2.89 -9.08)"/><path class="cls-3" d="M71.89,52.89s.1,0,.11,0c1.21,2.74,1.69,3.05,4.63,2.39,3.22-.72,6.41-1.6,9.61-2.41,1-.24,1.79-.6,1.93-1.86.49,1.33.2,2-1.06,2.4q-5.35,1.53-10.73,3c-2.57.68-4.33-.62-4.54-3.28A.59.59,0,0,1,71.89,52.89Z" transform="translate(-2.89 -9.08)"/><path class="cls-3" d="M75.46,68.28a3.61,3.61,0,0,1,1.93-3.87c3.84-2.21,7.6-4.57,11.4-6.87.63-.38.88-.18,1,.6a15.88,15.88,0,0,0-2,.86c-3.33,2.06-6.63,4.16-10,6.24C76.68,66,75.52,66.67,75.46,68.28Z" transform="translate(-2.89 -9.08)"/><path class="cls-3" d="M82.85,86.94c-.49.51-.68.5-1-.32-1-2.69-2-5.38-2.86-8.14.34.83.68,1.65,1,2.47.6,1.49,1.16,3,1.8,4.45A10.79,10.79,0,0,0,82.85,86.94Z" transform="translate(-2.89 -9.08)"/><path class="cls-3" d="M60.49,62.35,61.18,60c.62,0,.67.56.61.95a3.35,3.35,0,0,1-.62,1.39C61.08,62.48,60.63,62.35,60.49,62.35Z" transform="translate(-2.89 -9.08)"/><path class="cls-3" d="M70.8,69.85A.9.9,0,0,1,71.67,71a2.49,2.49,0,0,1-.67,1.2c-.08.09-.56-.16-.78-.46l.58.06Z" transform="translate(-2.89 -9.08)"/><path class="cls-3" d="M66.72,56.15c1-.59.34-1.45.72-2.27.29.43.67.75.68,1.09a2,2,0,0,1-.45,1.21C67.54,56.33,67.05,56.17,66.72,56.15Z" transform="translate(-2.89 -9.08)"/><path class="cls-3" d="M73.55,60.28c.2.31.59.62.57.92a2.46,2.46,0,0,1-.53,1.27c-.1.12-.58,0-.88-.07v-.24l.56,0v-1.7Z" transform="translate(-2.89 -9.08)"/><path class="cls-3" d="M62.87,72.52l.32-1.67.52.6-.21-1.07.28-.06a6.15,6.15,0,0,1,.16,1.58C63.91,72.11,63.36,72.25,62.87,72.52Z" transform="translate(-2.89 -9.08)"/></g><path class="cls-4" d="M61.78,9.4h81.16l22.2,21.76q-4.78,17.92-6.09,22.42-16,10.08-16.76,10.87Q153.18,75,153.17,75.55q-11.1,40.77-11.75,43.74H113.35l11.75-44H97.47l-11.75,44H57.65L81.8,29.2Q62,9.91,61.78,9.4Zm41.78,44h27.63q0-.73,5.88-22H109.65q-.51,0-2.61,9.14Q105.09,46.69,103.56,53.36Z" transform="translate(-2.89 -9.08)"/></g></g></svg>